<svg xmlns="http://www.w3.org/2000/svg" version="1.1" xmlns:xlink="http://www.w3.org/1999/xlink" xmlns:svgjs="http://svgjs.dev/svgjs" width="2000" height="1247" viewBox="0 0 2000 1247"><g transform="matrix(1,0,0,1,-1.2121212121212466,0.504858299595071)"><svg viewBox="0 0 396 247" data-background-color="#ffffff" preserveAspectRatio="xMidYMid meet" height="1247" width="2000" xmlns="http://www.w3.org/2000/svg" xmlns:xlink="http://www.w3.org/1999/xlink"><g id="tight-bounds" transform="matrix(1,0,0,1,0.2400000000000091,-0.09999999999999432)"><svg viewBox="0 0 395.52 247.2" height="247.2" width="395.52"><g><svg></svg></g><g><svg viewBox="0 0 395.52 247.2" height="247.2" width="395.52"><mask id="1a93ce41-9324-40f5-8d5a-b17250b3305d"><rect width="640" height="400" fill="white"></rect><g transform="matrix(1,0,0,1,39.55199999999999,52.94480418848167)"><svg viewBox="0 0 316.416 141.31039162303665" height="141.31039162303665" width="316.416"><g><svg viewBox="0 0 316.416 141.31039162303665" height="141.31039162303665" width="316.416"><g><svg viewBox="0 0 316.416 141.31039162303665" height="141.31039162303665" width="316.416"><g><svg viewBox="0 0 316.416 141.31039162303665" height="141.31039162303665" width="316.416"><g id="SvgjsG1205"><svg viewBox="0 0 316.416 141.31039162303665" height="141.31039162303665" width="316.416" id="SvgjsSvg1204"><g><svg viewBox="0 0 316.416 141.31039162303665" height="141.31039162303665" width="316.416"><g transform="matrix(1,0,0,1,0,0)"><svg width="316.416" viewBox="-2.35 -39.3 96.5 43.65" height="141.31039162303665" data-palette-color="#7a26c1"><path d="M27.25 0L24.45-7.75 9.25-7.75 6.45 0 1.65 0 14.25-34.65 19.5-34.65 32.05 0 27.25 0ZM10.55-11.45L23.15-11.45 16.85-29.05 10.55-11.45ZM62.4 0L56.45 0 42.1-15.9 42.1 0 37.55 0 37.55-34.85 42.1-34.85 42.1-18.7 56.5-34.85 62.25-34.85 46.45-17.4 62.4 0ZM78.55 0.35Q75.1 0.35 72.37-0.88 69.65-2.1 68.1-4.28 66.55-6.45 66.5-9.3L66.5-9.3 71.35-9.3Q71.6-6.85 73.37-5.18 75.15-3.5 78.55-3.5L78.55-3.5Q81.8-3.5 83.67-5.13 85.55-6.75 85.55-9.3L85.55-9.3Q85.55-11.3 84.45-12.55 83.35-13.8 81.7-14.45 80.05-15.1 77.25-15.85L77.25-15.85Q73.8-16.75 71.72-17.65 69.65-18.55 68.17-20.48 66.7-22.4 66.7-25.65L66.7-25.65Q66.7-28.5 68.15-30.7 69.6-32.9 72.22-34.1 74.85-35.3 78.25-35.3L78.25-35.3Q83.15-35.3 86.27-32.85 89.4-30.4 89.8-26.35L89.8-26.35 84.8-26.35Q84.55-28.35 82.7-29.88 80.85-31.4 77.8-31.4L77.8-31.4Q74.95-31.4 73.15-29.93 71.35-28.45 71.35-25.8L71.35-25.8Q71.35-23.9 72.42-22.7 73.5-21.5 75.07-20.88 76.65-20.25 79.5-19.45L79.5-19.45Q82.95-18.5 85.05-17.57 87.15-16.65 88.65-14.73 90.15-12.8 90.15-9.5L90.15-9.5Q90.15-6.95 88.8-4.7 87.45-2.45 84.8-1.05 82.15 0.35 78.55 0.35L78.55 0.35Z" opacity="1" transform="matrix(1,0,0,1,0,0)" fill="black" class="wordmark-text-0" id="SvgjsPath1203" stroke-width="7" stroke="black" stroke-linejoin="round"></path></svg></g></svg></g></svg></g></svg></g></svg></g></svg></g></svg></g></mask><g transform="matrix(1,0,0,1,39.55199999999999,52.94480418848167)"><svg viewBox="0 0 316.416 141.31039162303665" height="141.31039162303665" width="316.416"><g><svg viewBox="0 0 316.416 141.31039162303665" height="141.31039162303665" width="316.416"><g><svg viewBox="0 0 316.416 141.31039162303665" height="141.31039162303665" width="316.416"><g><svg viewBox="0 0 316.416 141.31039162303665" height="141.31039162303665" width="316.416"><g id="textblocktransform"><svg viewBox="0 0 316.416 141.31039162303665" height="141.31039162303665" width="316.416" id="textblock"><g><svg viewBox="0 0 316.416 141.31039162303665" height="141.31039162303665" width="316.416"><g transform="matrix(1,0,0,1,0,0)"><svg width="316.416" viewBox="-2.35 -39.3 96.5 43.65" height="141.31039162303665" data-palette-color="#7a26c1"><path d="M27.25 0L24.45-7.75 9.25-7.75 6.45 0 1.65 0 14.25-34.65 19.5-34.65 32.05 0 27.25 0ZM10.55-11.45L23.15-11.45 16.85-29.05 10.55-11.45ZM62.4 0L56.45 0 42.1-15.9 42.1 0 37.55 0 37.55-34.85 42.1-34.85 42.1-18.7 56.5-34.85 62.25-34.85 46.45-17.4 62.4 0ZM78.55 0.35Q75.1 0.35 72.37-0.88 69.65-2.1 68.1-4.28 66.55-6.45 66.5-9.3L66.5-9.3 71.35-9.3Q71.6-6.85 73.37-5.18 75.15-3.5 78.55-3.5L78.55-3.5Q81.8-3.5 83.67-5.13 85.55-6.75 85.55-9.3L85.55-9.3Q85.55-11.3 84.45-12.55 83.35-13.8 81.7-14.45 80.05-15.1 77.25-15.85L77.25-15.85Q73.8-16.75 71.72-17.65 69.65-18.55 68.17-20.48 66.7-22.4 66.7-25.65L66.7-25.65Q66.7-28.5 68.15-30.7 69.6-32.9 72.22-34.1 74.85-35.3 78.25-35.3L78.25-35.3Q83.15-35.3 86.27-32.85 89.4-30.4 89.8-26.35L89.8-26.35 84.8-26.35Q84.55-28.35 82.7-29.88 80.85-31.4 77.8-31.4L77.8-31.4Q74.95-31.4 73.15-29.93 71.35-28.45 71.35-25.8L71.35-25.8Q71.35-23.9 72.42-22.7 73.5-21.5 75.07-20.88 76.65-20.25 79.5-19.45L79.5-19.45Q82.95-18.5 85.05-17.57 87.15-16.65 88.65-14.73 90.15-12.8 90.15-9.5L90.15-9.5Q90.15-6.95 88.8-4.7 87.45-2.45 84.8-1.05 82.15 0.35 78.55 0.35L78.55 0.35Z" opacity="1" transform="matrix(1,0,0,1,0,0)" fill="#7a26c1" class="wordmark-text-0" data-fill-palette-color="primary" id="text-0"></path></svg></g></svg></g></svg></g></svg></g></svg></g></svg></g></svg></g><g mask="url(#1a93ce41-9324-40f5-8d5a-b17250b3305d)"><g transform="matrix(2.7461802690412873, 0, 0, 2.7461802690412873, 75.16603184765192, 1)"><svg xmlns="http://www.w3.org/2000/svg" xmlns:xlink="http://www.w3.org/1999/xlink" version="1.1" x="0" y="0" viewBox="0.35833249999999595 0.3587183000000067 89.28326340000001 89.2876563" enable-background="new 0 0 90 90" xml:space="preserve" height="89.2876563" width="89.28326340000001" class="icon-none" data-fill-palette-color="accent" id="none"><polygon points="57.928,58.169 57.875,76.027 45.397,63.548 45.397,45.639 " fill="#a437db" data-fill-palette-color="accent"></polygon><polygon points="76.027,57.875 58.475,57.927 45.826,45.279 63.432,45.279 " fill="#a437db" data-fill-palette-color="accent"></polygon><polygon points="76.027,32.125 63.432,44.721 45.707,44.721 58.355,32.073 " fill="#a437db" data-fill-palette-color="accent"></polygon><polygon points="44.838,45.59 44.838,63.314 32.125,76.027 32.074,58.355 " fill="#a437db" data-fill-palette-color="accent"></polygon><polygon points="57.928,31.712 45.397,44.243 45.397,26.452 57.875,13.974 " fill="#a437db" data-fill-palette-color="accent"></polygon><polygon points="44.838,26.687 44.838,44.291 32.074,31.526 32.125,13.974 " fill="#a437db" data-fill-palette-color="accent"></polygon><polygon points="44.479,44.721 26.569,44.721 13.974,32.125 31.832,32.073 " fill="#a437db" data-fill-palette-color="accent"></polygon><polygon points="44.36,45.279 31.712,57.927 13.974,57.875 26.569,45.279 " fill="#a437db" data-fill-palette-color="accent"></polygon><rect x="58.48" y="58.48" width="18.049" height="18.049" fill="#a437db" data-fill-palette-color="accent"></rect><polygon points="76.527,13.474 76.527,31.516 58.914,31.516 58.912,31.518 58.484,31.516 58.484,13.474 " fill="#a437db" data-fill-palette-color="accent"></polygon><polygon points="31.518,30.971 31.516,31.516 13.474,31.516 13.474,13.474 31.516,13.474 31.516,30.968 " fill="#a437db" data-fill-palette-color="accent"></polygon><rect x="13.471" y="58.48" width="18.05" height="18.049" fill="#a437db" data-fill-palette-color="accent"></rect><rect x="67.864" y="35.981" transform="matrix(0.7071 -0.7071 0.7071 0.7071 -9.3022 67.5465)" width="18.042" height="18.042" fill="#a437db" data-fill-palette-color="accent"></rect><rect x="35.979" y="4.094" transform="matrix(0.7071 -0.7071 0.7071 0.7071 3.9068 35.6621)" width="18.042" height="18.042" fill="#a437db" data-fill-palette-color="accent"></rect><rect x="4.095" y="35.98" transform="matrix(0.7071 -0.7071 0.7071 0.7071 -27.9787 22.4536)" width="18.041" height="18.041" fill="#a437db" data-fill-palette-color="accent"></rect><rect x="35.98" y="67.865" transform="matrix(0.7071 -0.7071 0.7071 0.7071 -41.1877 54.3437)" width="18.04" height="18.041" fill="#a437db" data-fill-palette-color="accent"></rect></svg></g></g></svg></g><defs></defs></svg><rect width="395.52" height="247.2" fill="none" stroke="none" visibility="hidden"></rect></g></svg></g></svg>